# Blender v3.0.0 OBJ File: 'fence_add.blend'
# www.blender.org
mtllib straight_road_sidewalk_tile_onesided_fence.mtl
o ROAD_TILE_Plane.009
v -10.000000 -0.000006 10.000000
v 9.999996 -0.000006 10.000000
v 9.999996 0.000006 -10.000000
v -10.000000 0.000006 -10.000000
v -10.100004 0.199994 10.000000
v -10.100004 0.200006 -10.000000
v -15.000000 0.200006 -10.000000
v -15.000000 0.199994 10.000000
v -10.000000 0.099989 10.000000
v -10.000000 0.100001 -10.000000
v 10.100001 0.199994 10.000000
v 10.100001 0.200006 -10.000000
v 14.999996 0.200006 -10.000000
v 9.999996 0.099989 10.000000
v 9.999996 0.100001 -10.000000
v 14.999996 10.200006 -10.000000
v 14.999996 0.200005 -8.750000
v 14.999996 0.200004 -7.500000
v 14.999996 0.200004 -6.250000
v 14.999996 0.200003 -5.000000
v 14.999996 0.200002 -3.750000
v 14.999996 0.200001 -2.500000
v 14.999996 0.200001 -1.250000
v 14.999996 0.200000 0.000000
v 14.999996 0.199999 2.500000
v 14.999996 0.199996 6.250000
v 14.999996 10.200004 -8.750000
v 14.999996 10.200004 -7.500000
v 14.999996 10.200004 -6.250000
v 14.999996 10.200003 -5.000000
v 14.999996 10.200002 -3.750000
v 14.999996 10.200001 -2.500000
v 14.999996 10.200001 -1.250000
v 14.999996 9.200006 -10.000000
v 14.999996 9.200000 -0.000000
v 14.999996 9.200001 -1.250000
v 14.999996 9.200001 -2.500000
v 14.999996 9.200002 -3.750000
v 14.999996 9.200003 -5.000000
v 14.999996 9.200004 -6.250000
v 14.999996 9.200004 -7.500000
v 14.999996 9.200004 -8.750000
v 14.999996 11.000005 -9.375000
v 14.999996 11.000004 -8.125000
v 14.999996 9.200004 -8.125000
v 14.999996 11.000004 -6.875000
v 14.999996 11.000004 -5.625000
v 14.999996 9.200004 -5.625000
v 14.999996 11.000002 -4.375000
v 14.999996 11.000002 -3.125000
v 14.999996 9.200002 -3.125000
v 14.999996 11.000001 -1.875000
v 14.999996 11.000001 -0.625000
v 14.999996 9.200001 -0.625000
v 14.931135 9.177236 -9.990024
v 14.931135 10.177236 -9.990024
v 14.931135 0.177235 -9.990024
v 14.931135 0.177235 -8.740024
v 14.931135 0.177234 -7.490023
v 14.931135 0.177233 -6.240023
v 14.931135 0.177233 -4.990023
v 14.931135 0.177232 -3.740023
v 14.931135 0.177231 -2.490023
v 14.931135 0.177230 -1.240023
v 14.931135 0.177230 0.009977
v 14.931135 10.977235 -9.365024
v 14.931135 10.177234 -8.740024
v 14.931135 10.977234 -6.865023
v 14.931135 10.177234 -6.240024
v 14.931135 10.977232 -4.365023
v 14.931135 10.177232 -3.740023
v 14.931135 10.977231 -1.865023
v 14.931135 10.177231 -1.240023
v 14.931135 9.177230 0.009977
v 14.931135 10.177230 0.009977
v 14.931135 9.177231 -1.240023
v 14.931135 9.177231 -2.490023
v 14.931135 10.177231 -2.490023
v 14.931135 9.177232 -3.740023
v 14.931135 9.177233 -4.990024
v 14.931135 10.177233 -4.990024
v 14.931135 9.177234 -6.240024
v 14.931135 9.177234 -7.490024
v 14.931135 10.177234 -7.490024
v 14.931135 9.177234 -8.740024
v 14.931135 9.177234 -6.865024
v 14.931135 9.177232 -4.365024
v 14.931135 9.177231 -1.865023
v 14.931135 9.177235 -9.365024
v 14.999996 10.200006 -0.000000
v 14.999996 0.200005 1.250000
v 14.999996 0.200004 3.750000
v 14.999996 0.200003 5.000000
v 14.999996 0.200001 7.500000
v 14.999996 0.200001 8.750000
v 14.999996 0.200000 10.000000
v 14.999996 10.200005 1.250000
v 14.999996 10.200005 2.500000
v 14.999996 10.200004 3.750000
v 14.999996 10.200003 5.000000
v 14.999996 10.200002 6.250000
v 14.999996 10.200002 7.500000
v 14.999996 10.200002 8.750000
v 14.999996 10.200000 10.000000
v 14.999996 9.200000 10.000000
v 14.999996 9.200002 8.750000
v 14.999996 9.200002 7.500000
v 14.999996 9.200002 6.250000
v 14.999996 9.200003 5.000000
v 14.999996 9.200004 3.750000
v 14.999996 9.200005 2.500000
v 14.999996 9.200005 1.250000
v 14.999996 11.000005 0.625000
v 14.999996 11.000005 1.875000
v 14.999996 9.200005 1.875000
v 14.999996 11.000004 3.125000
v 14.999996 11.000004 4.375000
v 14.999996 9.200004 4.375000
v 14.999996 11.000002 5.625000
v 14.999996 11.000002 6.875000
v 14.999996 9.200002 6.875000
v 14.999996 11.000002 8.125000
v 14.999996 11.000001 9.375000
v 14.999996 9.200001 9.375000
v 14.931135 0.177235 1.259976
v 14.931135 0.177234 2.509977
v 14.931135 0.177233 3.759977
v 14.931135 0.177233 5.009977
v 14.931135 0.177232 6.259977
v 14.931135 0.177231 7.509977
v 14.931135 0.177230 8.759976
v 14.931135 0.177230 10.009976
v 14.931135 10.977235 0.634976
v 14.931135 10.177235 1.259976
v 14.931135 10.977234 3.134977
v 14.931135 10.177234 3.759977
v 14.931135 10.977232 5.634977
v 14.931135 10.177232 6.259976
v 14.931135 10.977232 8.134976
v 14.931135 10.177232 8.759976
v 14.931135 9.177230 10.009977
v 14.931135 10.177230 10.009976
v 14.931135 9.177232 8.759977
v 14.931135 9.177232 7.509977
v 14.931135 10.177232 7.509976
v 14.931135 9.177232 6.259977
v 14.931135 9.177233 5.009976
v 14.931135 10.177233 5.009976
v 14.931135 9.177234 3.759976
v 14.931135 9.177235 2.509976
v 14.931135 10.177235 2.509977
v 14.931135 9.177235 1.259976
v 14.931135 9.177234 3.134976
v 14.931135 9.177232 5.634976
v 14.931135 9.177232 8.134977
v 14.931135 9.177235 0.634976
vt 0.000000 0.000000
vt 1.000000 0.000000
vt 1.000000 1.000000
vt 0.000000 1.000000
vt 0.979999 1.000000
vt 0.979999 0.000000
vt 0.000000 0.000000
vt 0.000000 1.000000
vt 0.930738 0.000000
vt 0.930739 0.999873
vt 1.000000 1.000000
vt 1.000000 0.000127
vt 1.000000 1.000000
vt 1.000000 0.000140
vt 0.930740 0.000000
vt 0.930740 0.999860
vt 0.979999 1.000000
vt 0.979999 0.000000
vt 0.000000 0.000000
vt 0.000000 0.062500
vt 0.000000 0.125000
vt 0.000000 0.187500
vt 0.000000 0.250000
vt 0.000000 0.312500
vt 0.000000 0.375000
vt 0.000000 0.437500
vt 0.000000 0.500000
vt 0.000000 0.562500
vt 0.000000 0.625000
vt 0.000000 0.687500
vt 0.000000 0.750000
vt 0.000000 0.812500
vt 0.000000 0.875000
vt 0.000000 0.937500
vt 0.000000 1.000000
vt 0.930738 0.000000
vt 0.930739 0.999873
vt 1.000000 1.000000
vt 1.000000 0.000127
vt 1.000000 1.000000
vt 1.000000 0.000140
vt 0.930740 0.000000
vt 0.930740 0.999860
vt 0.000000 0.375000
vt 0.000000 0.437500
vt 0.000000 0.000000
vt 0.000000 0.062500
vt 0.000000 0.125000
vt 0.000000 0.187500
vt 0.000000 0.250000
vt 0.000000 0.312500
vt 0.976227 0.454494
vt 0.976346 0.378132
vt 0.982044 0.377750
vt 0.981926 0.454112
vt 0.698856 0.531637
vt 0.698749 0.454501
vt 0.704448 0.454120
vt 0.704555 0.531256
vt 0.445440 0.454499
vt 0.445559 0.378136
vt 0.451258 0.377755
vt 0.451139 0.454118
vt 0.194077 0.531629
vt 0.193969 0.454492
vt 0.199668 0.454111
vt 0.199775 0.531248
vt 0.698868 0.378138
vt 0.704567 0.377757
vt 0.977902 0.920654
vt 0.976186 0.603991
vt 0.981885 0.603610
vt 0.983600 0.920273
vt 0.194088 0.378130
vt 0.199787 0.377749
vt 0.976335 0.531632
vt 0.982033 0.531250
vt 0.445547 0.531637
vt 0.451246 0.531255
vt 0.071015 0.454491
vt 0.071134 0.378129
vt 0.076833 0.377748
vt 0.076714 0.454109
vt 0.575907 0.531637
vt 0.575800 0.454502
vt 0.581498 0.454121
vt 0.581605 0.531256
vt 0.322490 0.454500
vt 0.322609 0.378137
vt 0.328308 0.377756
vt 0.328188 0.454119
vt 0.827070 0.531638
vt 0.826962 0.454499
vt 0.832661 0.454118
vt 0.832768 0.531256
vt 0.575919 0.378139
vt 0.581617 0.377758
vt 0.827081 0.378136
vt 0.832779 0.377755
vt 0.071123 0.531628
vt 0.076822 0.531247
vt 0.322597 0.531638
vt 0.328296 0.531256
vt 0.445399 0.603995
vt 0.451098 0.603614
vt 0.445325 0.302538
vt 0.451024 0.302156
vt 0.698708 0.603996
vt 0.704407 0.603615
vt 0.939394 0.833334
vt 1.001228 0.833334
vt 1.001228 0.925926
vt 0.939394 1.000000
vt 0.688649 0.833333
vt 0.751157 0.833333
vt 0.751157 0.925926
vt 0.688649 1.000000
vt 0.698635 0.302539
vt 0.704334 0.302158
vt 0.437152 0.833333
vt 0.499841 0.833333
vt 0.499841 0.925926
vt 0.437152 1.000000
vt 0.193929 0.603989
vt 0.199627 0.603608
vt 0.186626 0.833333
vt 0.248774 0.833333
vt 0.248774 0.925926
vt 0.186626 1.000000
vt 0.124478 0.000000
vt 0.248773 0.000000
vt 0.124478 0.833333
vt 0.374463 0.000000
vt 0.499841 0.000000
vt 0.374463 0.833333
vt 0.193855 0.302533
vt 0.199554 0.302151
vt 0.626141 0.000000
vt 0.751157 0.000000
vt 0.626141 0.833333
vt 0.877560 0.000000
vt 1.001228 0.000000
vt 0.877560 0.833333
vt 0.070976 0.603988
vt 0.076675 0.603607
vt 0.976112 0.302534
vt 0.977902 0.000381
vt 0.983600 0.000000
vt 0.981811 0.302152
vt 0.124478 0.925926
vt 0.374463 0.925926
vt 0.626141 0.925926
vt 0.447117 0.920653
vt 0.452816 0.920272
vt 0.877560 0.925926
vt 0.447117 0.000381
vt 0.452816 0.000000
vt 0.062292 0.833334
vt 0.123648 0.833334
vt 0.123648 0.925926
vt 0.062291 1.000000
vt 0.813113 0.836118
vt 0.874522 0.836119
vt 0.874522 0.928711
vt 0.813113 1.002785
vt 0.561940 0.833334
vt 0.624517 0.833334
vt 0.624517 0.925926
vt 0.561940 1.000000
vt 0.311101 0.833334
vt 0.373767 0.833333
vt 0.373767 0.925926
vt 0.311101 1.000000
vt 0.248434 0.000000
vt 0.373767 0.000000
vt 0.248434 0.833334
vt 0.499362 0.000000
vt 0.624517 0.000000
vt 0.499362 0.833334
vt 0.751704 0.002785
vt 0.874522 0.002785
vt 0.751704 0.836118
vt 0.000934 0.000000
vt 0.123648 0.000000
vt 0.000934 0.833334
vt 0.000934 0.925926
vt 0.248435 0.925926
vt 0.499363 0.925926
vt 0.751704 0.928711
vt 0.072697 0.920650
vt 0.078395 0.920269
vt 0.195647 0.000381
vt 0.201346 0.000000
vt 0.195647 0.920652
vt 0.201346 0.920271
vt 0.700426 0.000381
vt 0.706125 0.000000
vt 0.700426 0.920654
vt 0.706125 0.920272
vt 0.322449 0.603997
vt 0.328148 0.603615
vt 0.322376 0.302538
vt 0.328074 0.302157
vt 0.575759 0.603996
vt 0.581457 0.603615
vt 0.939394 0.833334
vt 1.001228 0.833334
vt 1.001228 0.925926
vt 0.939394 1.000000
vt 0.688649 0.833333
vt 0.751157 0.833333
vt 0.751157 0.925926
vt 0.688649 1.000000
vt 0.575685 0.302540
vt 0.581384 0.302159
vt 0.437152 0.833333
vt 0.499841 0.833333
vt 0.499841 0.925926
vt 0.437152 1.000000
vt 0.826922 0.603996
vt 0.832620 0.603615
vt 0.186626 0.833333
vt 0.248774 0.833333
vt 0.248774 0.925926
vt 0.186626 1.000000
vt 0.124478 0.000000
vt 0.248773 0.000000
vt 0.124478 0.833333
vt 0.374463 0.000000
vt 0.499841 0.000000
vt 0.374463 0.833333
vt 0.826847 0.302537
vt 0.832546 0.302156
vt 0.626141 0.000000
vt 0.751157 0.000000
vt 0.626141 0.833333
vt 0.877560 0.000000
vt 1.001228 0.000000
vt 0.877560 0.833333
vt 0.933320 0.333909
vt 0.933162 0.413301
vt 0.927396 0.412233
vt 0.927554 0.332842
vt 0.070902 0.302532
vt 0.072697 0.000381
vt 0.078395 0.000000
vt 0.076600 0.302150
vt 0.124478 0.925926
vt 0.374463 0.925926
vt 0.626141 0.925926
vt 0.324167 0.920655
vt 0.329866 0.920273
vt 0.877560 0.925926
vt 0.324167 0.000381
vt 0.329866 0.000000
vt 0.062292 0.833334
vt 0.123648 0.833334
vt 0.123648 0.925926
vt 0.062291 1.000000
vt 0.813113 0.836118
vt 0.874522 0.836119
vt 0.874522 0.928711
vt 0.813113 1.002785
vt 0.561940 0.833334
vt 0.624517 0.833334
vt 0.624517 0.925926
vt 0.561940 1.000000
vt 0.311101 0.833334
vt 0.373767 0.833333
vt 0.373767 0.925926
vt 0.311101 1.000000
vt 0.248434 0.000000
vt 0.373767 0.000000
vt 0.248434 0.833334
vt 0.499362 0.000000
vt 0.624517 0.000000
vt 0.499362 0.833334
vt 0.751704 0.002785
vt 0.874522 0.002785
vt 0.751704 0.836118
vt 0.000934 0.000000
vt 0.123648 0.000000
vt 0.000934 0.833334
vt 0.000934 0.925926
vt 0.248435 0.925926
vt 0.499363 0.925926
vt 0.751704 0.928711
vt 0.933162 0.001068
vt 0.927396 0.000000
vt 0.828638 0.000381
vt 0.834337 0.000000
vt 0.828638 0.920653
vt 0.834337 0.920272
vt 0.577477 0.000381
vt 0.583175 0.000000
vt 0.577477 0.920654
vt 0.583175 0.920272
vn 0.0000 1.0000 0.0000
vn 0.7071 0.7071 0.0000
vn 1.0000 0.0000 0.0000
vn 0.0000 -1.0000 -0.0000
vn 0.7071 -0.7071 -0.0000
vn 0.2952 0.6263 -0.7215
vn 0.5157 0.5047 0.6923
vn 0.5112 0.6823 0.5226
vn 0.4547 0.6581 -0.6001
vn -0.3139 0.9494 0.0000
vn 0.0890 -0.6132 -0.7849
vn 0.3028 -0.5867 0.7510
vn 0.1434 0.0000 0.9897
vn 0.7561 0.0000 0.6545
vn 0.9060 0.0000 0.4232
vn 0.8272 0.0000 0.5620
vn 0.8798 0.0000 -0.4753
vn 0.6545 -0.0000 -0.7561
vn 0.7635 0.0000 -0.6458
vn 0.9061 0.0000 0.4232
vn 0.9842 0.0000 0.1770
vn 0.9771 0.0000 0.2128
vn 0.8296 0.5359 0.1570
vn 0.7561 0.0000 0.6544
vn 0.7021 0.0000 0.7121
vn 0.5714 -0.0000 -0.8207
vn 0.7460 0.0000 -0.6659
vn 0.8157 0.0000 0.5785
usemtl Material.024
s 1
f 1/1/1 2/2/1 3/3/1 4/4/1
usemtl Material.025
f 5/5/1 6/6/1 7/7/1 8/8/1
f 6/9/2 5/10/2 9/11/2 10/12/2
f 1/13/3 4/14/3 10/15/3 9/16/3
f 11/17/4 12/18/4 13/19/4 17/20/4 18/21/4 19/22/4 20/23/4 21/24/4 22/25/4 23/26/4 24/27/4 91/28/4 25/29/4 92/30/4 93/31/4 26/32/4 94/33/4 95/34/4 96/35/4
f 12/36/5 11/37/5 14/38/5 15/39/5
f 2/40/3 3/41/3 15/42/3 14/43/3
f 23/26/6 22/25/7 63/44/8 64/45/9
f 17/20/6 13/19/10 57/46/10 58/47/9
f 19/22/6 18/21/7 59/48/8 60/49/9
f 21/24/6 20/23/7 61/50/8 62/51/9
usemtl Material.001
s off
f 43/52/11 27/53/11 67/54/11 66/55/11
f 30/56/12 49/57/12 70/58/12 81/59/12
f 46/60/11 29/61/11 69/62/11 68/63/11
f 32/64/12 52/65/12 72/66/12 78/67/12
f 49/57/11 31/68/11 71/69/11 70/58/11
f 13/70/13 34/71/13 55/72/13 57/73/13
f 52/65/11 33/74/11 73/75/11 72/66/11
f 34/71/13 16/76/13 56/77/13 55/72/13
f 16/76/12 43/52/12 66/55/12 56/77/12
f 28/78/12 46/60/12 68/63/12 84/79/12
f 113/80/11 97/81/11 134/82/11 133/83/11
f 100/84/12 119/85/12 137/86/12 148/87/12
f 116/88/11 99/89/11 136/90/11 135/91/11
f 102/92/12 122/93/12 139/94/12 145/95/12
f 119/85/11 101/96/11 138/97/11 137/86/11
f 122/93/11 103/98/11 140/99/11 139/94/11
f 90/100/12 113/80/12 133/83/12 75/101/12
f 98/102/12 116/88/12 135/91/12 151/103/12
s 1
f 41/104/14 28/78/15 84/79/16 83/105/14
f 29/61/17 40/106/18 82/107/18 69/62/19
f 39/108/14 30/56/15 81/59/16 80/109/14
f 54/110/3 36/111/18 33/112/17 53/113/3
f 51/114/3 38/115/18 31/116/17 50/117/3
f 31/68/17 38/118/18 79/119/18 71/69/19
f 48/120/3 40/121/18 29/122/17 47/123/3
f 37/124/14 32/64/15 78/67/16 77/125/14
f 45/126/3 42/127/18 27/128/17 44/129/3
f 18/130/7 17/131/6 42/127/18 45/126/3 41/132/14
f 20/133/7 19/134/6 40/121/18 48/120/3 39/135/14
f 33/74/17 36/136/18 76/137/18 73/75/19
f 22/138/7 21/139/6 38/115/18 51/114/3 37/140/14
f 24/141/7 23/142/6 36/111/18 54/110/3 35/143/14
f 35/144/14 90/100/20 75/101/21 74/145/22
f 42/146/18 17/147/6 58/148/9 85/149/18
f 41/132/14 45/126/3 44/129/3 28/150/15
f 39/135/14 48/120/3 47/123/3 30/151/15
f 37/140/14 51/114/3 50/117/3 32/152/15
f 18/153/7 41/104/14 83/105/14 59/154/8
f 35/143/14 54/110/3 53/113/3 90/155/20
f 40/106/18 19/156/6 60/157/9 82/107/18
f 89/158/3 55/159/3 56/160/3 66/161/3
f 88/162/3 77/163/14 78/164/16 72/165/3
f 87/166/3 80/167/14 81/168/16 70/169/3
f 86/170/3 83/171/14 84/172/16 68/173/3
f 60/174/9 59/175/8 83/171/14 86/170/3 82/176/18
f 62/177/9 61/178/8 80/167/14 87/166/3 79/179/18
f 64/180/9 63/181/8 77/163/14 88/162/3 76/182/18
f 58/183/9 57/184/3 55/159/3 89/158/3 85/185/18
f 85/185/18 89/158/3 66/161/3 67/186/19
f 82/176/18 86/170/3 68/173/3 69/187/19
f 79/179/18 87/166/3 70/169/3 71/188/19
f 76/182/18 88/162/3 72/165/3 73/189/19
f 27/53/17 42/146/18 85/149/18 67/54/19
f 24/190/7 35/144/14 74/145/22 65/191/23
f 36/136/18 23/192/6 64/193/9 76/137/18
f 22/194/7 37/124/14 77/125/14 63/195/8
f 38/118/18 21/196/6 62/197/9 79/119/18
f 20/198/7 39/108/14 80/109/14 61/199/8
f 111/200/14 98/102/15 151/103/16 150/201/14
f 99/89/17 110/202/18 149/203/18 136/90/19
f 109/204/14 100/84/15 148/87/16 147/205/14
f 124/206/3 106/207/18 103/208/17 123/209/3
f 121/210/3 108/211/18 101/212/17 120/213/3
f 101/96/17 108/214/18 146/215/18 138/97/19
f 118/216/3 110/217/18 99/218/17 117/219/3
f 107/220/24 102/92/15 145/95/16 144/221/24
f 115/222/3 112/223/18 97/224/17 114/225/3
f 25/226/25 91/227/26 112/223/18 115/222/3 111/228/14
f 93/229/25 92/230/26 110/217/18 118/216/3 109/231/14
f 103/98/17 106/232/18 143/233/18 140/99/19
f 94/234/25 26/235/26 108/211/18 121/210/3 107/236/24
f 96/237/7 95/238/26 106/207/18 124/206/3 105/239/24
f 105/240/24 104/241/15 142/242/16 141/243/24
f 112/244/18 91/245/26 125/246/27 152/247/18
f 111/228/14 115/222/3 114/225/3 98/248/15
f 109/231/14 118/216/3 117/219/3 100/249/15
f 107/236/24 121/210/3 120/213/3 102/250/15
f 25/251/25 111/200/14 150/201/14 126/252/28
f 105/239/24 124/206/3 123/209/3 104/253/15
f 110/202/18 92/254/26 127/255/27 149/203/18
f 156/256/3 74/257/22 75/258/21 133/259/3
f 155/260/3 144/261/24 145/262/16 139/263/3
f 154/264/3 147/265/14 148/266/16 137/267/3
f 153/268/3 150/269/14 151/270/16 135/271/3
f 127/272/27 126/273/28 150/269/14 153/268/3 149/274/18
f 129/275/27 128/276/28 147/265/14 154/264/3 146/277/18
f 131/278/27 130/279/28 144/261/24 155/260/3 143/280/18
f 125/281/27 65/282/23 74/257/22 156/256/3 152/283/18
f 152/283/18 156/256/3 133/259/3 134/284/19
f 149/274/18 153/268/3 135/271/3 136/285/19
f 146/277/18 154/264/3 137/267/3 138/286/19
f 143/280/18 155/260/3 139/263/3 140/287/19
f 97/81/17 112/244/18 152/247/18 134/82/19
f 96/288/7 105/240/24 141/243/24 132/289/8
f 106/232/18 95/290/26 131/291/27 143/233/18
f 94/292/25 107/220/24 144/221/24 130/293/28
f 108/214/18 26/294/26 129/295/27 146/215/18
f 93/296/25 109/204/14 147/205/14 128/297/28
