# Blender v3.0.0 OBJ File: 'ai_testlevel.blend'
# www.blender.org
mtllib ai_testlevel.mtl
o NODES_Sphere.009
v 32.000000 -0.000000 48.000000
v 0.000000 -0.000000 0.000000
v 0.000000 -0.000000 48.000000
v 0.000000 -0.000000 112.000000
v 144.000000 10.000000 112.000000
v 144.000000 10.000000 16.000000
v 80.020233 -0.000000 16.000000
v 80.000000 -0.000000 80.000000
v 32.000000 -0.000000 80.000000
v 32.000000 -0.000000 16.000000
o ROAD_Plane.001
v -8.020229 0.000000 8.020229
v 8.020229 0.000000 8.020229
v -8.020229 0.000000 -8.020229
v 8.020229 0.000000 -8.020229
v 23.979773 0.000000 40.006748
v 23.979773 0.000000 55.993259
v 40.020229 0.000000 40.006748
v 40.020229 0.000000 55.993259
v 23.979773 0.000000 88.020233
v 40.020229 0.000000 88.020233
v 23.979773 0.000000 71.979774
v 40.020229 0.000000 71.979774
v 23.979773 0.000000 24.020229
v 40.020229 0.000000 24.020229
v 23.979773 0.000000 7.979772
v 40.020229 0.000000 7.979772
v 72.020233 0.000000 7.979772
v 56.020233 0.000000 7.979772
v 72.020233 0.000000 24.020229
v 88.020233 0.000000 24.020229
v 56.020233 0.000000 24.020229
v 88.020233 0.000000 7.979772
v 56.000000 0.000000 71.979774
v 56.000000 0.000000 88.020233
v 71.979774 0.000000 88.020233
v 88.020233 0.000000 88.020233
v 71.979774 0.000000 71.979774
v 88.020233 0.000000 71.979774
v 71.993263 0.000000 55.993259
v 72.006752 0.000000 40.006748
v 88.020233 0.000000 55.993259
v 88.020233 0.000000 40.006748
v 120.000015 10.020245 24.020229
v 120.000015 10.020245 7.979772
v -8.020229 0.000000 87.986511
v -8.020229 0.000000 71.993256
v -8.020229 0.000000 55.999996
v -8.020229 0.000000 40.006744
v -8.020229 0.000000 24.013487
v 8.020229 0.000000 87.986511
v 8.020229 0.000000 71.993256
v 8.020229 0.000000 55.999996
v 8.020229 0.000000 40.006744
v 8.020229 0.000000 24.013487
v -8.020229 0.000000 120.020226
v 8.020229 0.000000 120.020226
v -8.020229 0.000000 103.979767
v 8.020229 0.000000 103.979767
v 72.020233 0.000000 103.979767
v 56.020233 0.000000 103.979767
v 40.020229 0.000000 103.979767
v 24.020229 0.000000 103.979767
v 72.020233 0.000000 120.020226
v 56.020233 0.000000 120.020226
v 40.020229 0.000000 120.020226
v 24.020229 0.000000 120.020226
v 104.010124 5.010122 7.979772
v 104.010124 5.010122 24.020229
v 135.979782 10.000000 24.020229
v 152.020233 10.000000 24.020229
v 135.979782 10.000000 7.979772
v 152.020233 10.000000 7.979772
v 88.020233 0.000000 120.020233
v 88.020233 0.000000 103.979774
v 120.000015 10.020245 120.020233
v 120.000015 10.020245 103.979782
v 104.010124 5.010122 103.979774
v 104.010124 5.010122 120.020233
v 135.979782 10.000000 120.020233
v 152.020233 10.000000 120.020233
v 135.979782 10.000000 103.979774
v 152.020233 10.000000 103.979774
v 135.979782 10.000000 88.020233
v 152.020233 10.000000 88.020233
v 135.979782 7.000000 71.979774
v 152.020233 7.000000 71.979774
v 135.979782 7.000000 55.979771
v 152.020233 7.000000 55.979771
v 135.979782 10.000000 39.979771
v 152.020233 10.000000 39.979771
vt 0.000000 0.000000
vt 1.000000 0.000000
vt 1.000000 1.000000
vt 0.000000 1.000000
vt 0.000000 0.000000
vt 1.000000 0.000000
vt 1.000000 1.000000
vt 0.000000 1.000000
vt 0.000000 0.000000
vt 1.000000 0.000000
vt 1.000000 1.000000
vt 0.000000 1.000000
vt 0.000000 0.000000
vt 1.000000 0.000000
vt 1.000000 1.000000
vt 0.000000 1.000000
vt 0.000000 0.000000
vt 1.000000 0.000000
vt 1.000000 1.000000
vt 0.000000 1.000000
vt 0.000000 0.000000
vt 1.000000 0.000000
vt 1.000000 1.000000
vt 0.000000 1.000000
vt -0.000000 1.000000
vt 0.000000 -0.000000
vt 1.000000 0.000000
vt 1.000000 1.000000
vt -0.000000 1.000000
vt 0.000000 -0.000000
vt 1.000000 0.000000
vt 1.000000 1.000000
vt 0.000000 0.000000
vt 1.000000 0.000000
vt 1.000000 1.000000
vt 0.000000 1.000000
vt 0.000000 0.000000
vt 1.000000 0.000000
vt 1.000000 1.000000
vt 0.000000 1.000000
vt 0.000000 0.000000
vt 1.000000 0.000000
vt 1.000000 1.000000
vt 0.000000 1.000000
vt 0.000000 0.000000
vt 1.000000 0.000000
vt 1.000000 1.000000
vt 0.000000 1.000000
vt 0.000000 0.000000
vt 1.000000 0.000000
vt 1.000000 1.000000
vt 0.000000 1.000000
vt 0.000000 0.000000
vt 1.000000 0.000000
vt 1.000000 1.000000
vt 0.000000 1.000000
vt 0.000000 0.000000
vt 1.000000 0.000000
vt 1.000000 1.000000
vt 0.000000 1.000000
vt 0.000000 0.000000
vt 1.000000 0.000000
vt 1.000000 1.000000
vt 0.000000 1.000000
vt 0.000000 0.000000
vt 1.000000 0.000000
vt 1.000000 1.000000
vt 0.000000 1.000000
vt -0.000000 1.000000
vt 0.000000 -0.000000
vt 1.000000 0.000000
vt 1.000000 1.000000
vt -0.000000 1.000000
vt 0.000000 -0.000000
vt 1.000000 0.000000
vt 1.000000 1.000000
vt -0.000000 1.000000
vt 0.000000 -0.000000
vt 1.000000 0.000000
vt 1.000000 1.000000
vt -0.000000 1.000000
vt 0.000000 -0.000000
vt 1.000000 0.000000
vt 1.000000 1.000000
vt -0.000000 1.000000
vt 0.000000 -0.000000
vt 1.000000 0.000000
vt 1.000000 1.000000
vt 0.000000 0.000000
vt 1.000000 0.000000
vt 1.000000 1.000000
vt 0.000000 1.000000
vt 0.000000 0.000000
vt 1.000000 0.000000
vt 1.000000 1.000000
vt 0.000000 1.000000
vt 0.000000 0.000000
vt 1.000000 0.000000
vt 1.000000 1.000000
vt 0.000000 1.000000
vt 0.000000 0.000000
vt 1.000000 0.000000
vt 1.000000 1.000000
vt 0.000000 1.000000
vt 0.000000 0.000000
vt 1.000000 0.000000
vt 1.000000 1.000000
vt 0.000000 1.000000
vt -0.000000 1.000000
vt 0.000000 -0.000000
vt 1.000000 0.000000
vt 1.000000 1.000000
vt -0.000000 1.000000
vt 0.000000 -0.000000
vt 1.000000 0.000000
vt 1.000000 1.000000
vt 0.000000 0.000000
vt 1.000000 0.000000
vt 1.000000 1.000000
vt 0.000000 1.000000
vt 0.000000 0.000000
vt 1.000000 0.000000
vt 1.000000 1.000000
vt 0.000000 1.000000
vt -0.000000 1.000000
vt 0.000000 -0.000000
vt 1.000000 0.000000
vt 1.000000 1.000000
vt 0.000000 1.000000
vt 0.000000 0.000000
vt 1.000000 0.000000
vt 0.000000 0.000000
vt 1.000000 0.000000
vt 0.000000 1.000000
vt 0.000000 1.000000
vt 0.000000 0.000000
vt 1.000000 0.000000
vt -0.000000 1.000000
vt 0.000000 -0.000000
vt 1.000000 0.000000
vt 1.000000 1.000000
vt 0.000000 1.000000
vt -0.000000 0.000000
vt 0.000000 1.000000
vt 0.000000 0.000000
vt 1.000000 0.000000
vt 1.000000 -0.000000
vt 0.000000 1.000000
vt 0.000000 -0.000000
vt 1.000000 1.000000
vt 1.000000 1.000000
vt 0.000000 1.000000
vn 0.0000 1.0000 0.0000
vn -0.2990 0.9543 0.0000
vn 0.0013 1.0000 0.0000
vn 0.0000 0.9830 -0.1838
vn 0.0000 0.9829 0.1843
usemtl Straight
s off
f 11/1/1 12/2/1 14/3/1 13/4/1
f 51/5/1 46/6/1 45/7/1 50/8/1
f 52/9/1 47/10/1 46/11/1 51/12/1
f 53/13/1 52/14/1 16/15/1 15/16/1
f 24/17/1 23/18/1 15/19/1 17/20/1
f 18/21/1 16/22/1 21/23/1 22/24/1
f 31/25/1 29/26/1 27/27/1 28/28/1
f 24/29/1 31/30/1 28/31/1 26/32/1
f 32/33/2 30/34/2 68/35/2 67/36/2
f 22/37/1 20/38/1 34/39/1 33/40/1
f 33/41/1 34/42/1 35/43/1 37/44/1
f 42/45/1 40/46/1 39/47/1 41/48/1
f 30/49/1 29/50/1 40/51/1 42/52/1
f 41/53/1 39/54/1 37/55/1 38/56/1
f 54/57/1 49/58/1 48/59/1 53/60/1
f 12/61/1 11/62/1 49/63/1 54/64/1
f 50/65/1 45/66/1 57/67/1 58/68/1
f 64/69/1 63/70/1 59/71/1 60/72/1
f 65/73/1 64/74/1 60/75/1 61/76/1
f 66/77/1 65/78/1 61/79/1 62/80/1
f 56/81/1 66/82/1 62/83/1 58/84/1
f 63/85/1 73/86/1 74/87/1 59/88/1
f 67/89/2 68/90/2 43/91/2 44/92/2
f 44/93/3 43/94/3 69/95/3 71/96/3
f 74/97/2 73/98/2 78/99/2 77/100/2
f 77/101/2 78/102/2 75/103/2 76/104/2
f 76/105/3 75/106/3 79/107/3 81/108/3
f 85/109/4 83/110/4 84/111/4 86/112/4
f 88/113/5 90/114/5 89/115/5 87/116/5
f 70/117/1 69/118/1 89/119/1 90/120/1
f 81/121/1 82/122/1 84/123/1 83/124/1
f 86/125/1 88/126/1 87/127/1 85/128/1
usemtl Corner
f 19/129/1 20/130/1 22/131/1 21/23/1
f 23/132/1 24/133/1 26/32/1 25/134/1
f 35/43/1 36/135/1 38/136/1 37/137/1
f 55/138/1 56/139/1 58/140/1 57/67/1
f 69/118/1 70/141/1 72/142/1 71/143/1
f 79/107/1 80/144/1 82/145/1 81/146/1
usemtl T1
f 53/147/1 48/59/1 47/148/1 52/9/1
f 17/20/1 15/149/1 16/22/1 18/150/1
f 29/26/1 30/34/1 32/151/1 27/152/1
