# Blender v3.0.0 OBJ File: ''
# www.blender.org
mtllib garage_door.mtl
o GARAGE_Plane_Plane.001
v 254.999878 6.150013 -100.000137
v 244.999878 6.150013 -100.000137
v 244.999878 0.300014 -100.000137
v 254.999878 0.300013 -100.000137
v 254.999878 6.150013 -99.990677
v 254.999878 0.300013 -99.990677
v 244.999878 6.150013 -99.990677
v 244.999878 0.300014 -99.990677
v -91.123077 -11.699960 -271.514648
v -91.123077 -19.699961 -271.514648
v -108.923073 -11.699956 -271.514648
v -108.923080 -19.699957 -271.514648
v 846.583984 26.059492 -287.611542
v 846.583984 26.059490 -272.611542
v 846.583984 20.209490 -272.611542
v 846.583984 20.209494 -287.611542
v -91.123077 -11.699960 -271.580475
v -91.123077 -19.699961 -271.580475
v -108.923073 -11.699956 -271.580475
v -108.923080 -19.699957 -271.580475
v 846.650146 26.059492 -287.611542
v 846.650146 20.209494 -287.611542
v 846.650146 26.059490 -272.611542
v 846.650146 20.209490 -272.611542
vt 4.351893 3.927701
vt 2.724922 3.927701
vt 2.724922 1.146574
vt 4.351893 1.146574
vt 1.097947 3.927701
vt 1.097947 1.146574
vt 2.724920 1.146574
vt 2.724920 3.927701
vt 2.724922 -3.025174
vt 4.351893 -3.025174
vt 4.351893 1.146457
vt 2.724922 1.146457
vt 2.724922 -3.025174
vt 2.724922 1.146457
vt 1.097950 1.146457
vt 1.097950 -3.025174
vt -3.351894 1.925287
vt -3.351894 -3.025174
vt -1.126972 -3.025174
vt -1.126972 1.925287
vt -1.126972 -3.025174
vt 1.097950 -3.025174
vt 1.097950 1.925287
vt -1.126972 1.925287
vn 0.0000 0.0000 1.0000
vn 0.0000 0.0000 -1.0000
vn 1.0000 0.0000 0.0000
vn -1.0000 0.0000 0.0000
vn -0.7066 0.0345 -0.7068
vn 0.7066 0.0345 -0.7068
vn 0.7059 -0.0540 -0.7062
vn -0.7063 -0.0540 -0.7058
vn -0.7068 0.0345 0.7066
vn -0.7058 -0.0540 0.7063
vn 0.7062 -0.0540 0.7059
vn 0.7068 0.0345 0.7066
g GARAGE_Plane_Plane.001_GARAGE_Plane_Plane.001_Material.001
usemtl Material.001
s off
f 4/1/1 1/2/1 2/3/1 3/4/1
f 6/5/2 8/6/2 7/7/2 5/8/2
f 16/9/3 13/10/3 14/11/3 15/12/3
f 22/13/4 24/14/4 23/15/4 21/16/4
s 1
f 10/17/5 12/18/6 11/19/7 9/20/8
f 18/21/9 17/22/10 19/23/11 20/24/12
l 13 21
l 23 14
l 16 22
l 15 24
