# Blender v3.0.1 OBJ File: ''
# www.blender.org
mtllib pressSPACE.mtl
o Cube
v 0.272330 0.337314 -0.500000
v 0.272330 -0.337314 -0.500000
v 0.272330 0.337314 0.500000
v 0.272330 -0.337314 0.500000
v -0.272330 0.337314 -0.500000
v -0.272330 -0.337314 -0.500000
v -0.272330 0.337314 0.500000
v -0.272330 -0.337314 0.500000
v 0.272330 0.337314 -0.500000
v 0.272330 -0.337314 -0.500000
v 0.272330 0.337314 0.500000
v 0.272330 -0.337314 0.500000
vt 0.625000 0.500000
vt 0.875000 0.500000
vt 0.875000 0.750000
vt 0.625000 0.750000
vt 0.375000 0.750000
vt 0.625000 1.000000
vt 0.375000 1.000000
vt 0.375000 0.000000
vt 0.625000 0.000000
vt 0.625000 0.250000
vt 0.375000 0.250000
vt 0.125000 0.500000
vt 0.375000 0.500000
vt 0.125000 0.750000
vt 0.000214 -0.000214
vt -0.000214 0.999786
vt 0.999786 1.000214
vt 1.000214 0.000214
vt -0.000489 0.000489
vt 0.000489 1.000489
vt 1.000489 0.999511
vt 0.999511 -0.000489
vn 0.0000 1.0000 0.0000
vn 0.0000 0.0000 1.0000
vn -1.0000 0.0000 0.0000
vn 0.0000 -1.0000 0.0000
vn 0.0000 0.0000 -1.0000
vn 1.0000 0.0000 0.0000
usemtl Material
s off
f 1/1/1 5/2/1 7/3/1 3/4/1
f 4/5/2 3/4/2 7/6/2 8/7/2
f 8/8/3 7/9/3 5/10/3 6/11/3
f 6/12/4 2/13/4 4/5/4 8/14/4
f 6/15/5 5/16/5 1/17/5 2/18/5
f 10/19/6 9/20/6 11/21/6 12/22/6
