# Blender v3.0.1 OBJ File: ''
# www.blender.org
mtllib testMap.mtl
o Cube_Cube.002
v -1.000000 -2.739173 7.256444
v -1.000000 5.645149 7.256444
v -1.000000 -2.739173 -7.256444
v -1.000000 5.645149 -7.256444
v 1.000000 -2.739173 7.256444
v 1.000000 5.645149 7.256444
v 1.000000 -2.739173 -7.256444
v 1.000000 5.645149 -7.256444
vt 0.375000 0.000000
vt 0.625000 0.000000
vt 0.625000 0.250000
vt 0.375000 0.250000
vt 0.625000 0.500000
vt 0.375000 0.500000
vt 0.625000 0.750000
vt 0.375000 0.750000
vt 0.625000 1.000000
vt 0.375000 1.000000
vt 0.125000 0.500000
vt 0.125000 0.750000
vt 0.875000 0.500000
vt 0.875000 0.750000
vn -1.0000 0.0000 0.0000
vn 0.0000 0.0000 -1.0000
vn 1.0000 0.0000 0.0000
vn 0.0000 0.0000 1.0000
vn 0.0000 -1.0000 0.0000
vn 0.0000 1.0000 0.0000
g Cube_Cube.002_Material.004
usemtl Material.004
s off
f 1/1/1 2/2/1 4/3/1 3/4/1
f 3/4/2 4/3/2 8/5/2 7/6/2
f 7/6/3 8/5/3 6/7/3 5/8/3
f 5/8/4 6/7/4 2/9/4 1/10/4
f 3/11/5 7/6/5 5/8/5 1/12/5
f 8/5/6 4/13/6 2/14/6 6/7/6
o Plane_Plane.002
v -7.418566 0.000000 14.879053
v 9.434315 0.000000 14.879053
v -7.418566 0.000000 -14.879053
v 9.434315 0.000000 -14.879053
vt 0.000000 0.000000
vt 1.000000 0.000000
vt 1.000000 1.000000
vt 0.000000 1.000000
vn 0.0000 1.0000 0.0000
g Plane_Plane.002_Material.005
usemtl Material.005
s off
f 9/15/7 10/16/7 12/17/7 11/18/7
