# Blender v3.0.0 OBJ File: 'world_map.blend'
# www.blender.org
mtllib road_intersection.mtl
o ROAD_TILE_Plane.001
v 9.999996 -0.000002 10.000000
v 9.999996 0.000000 0.000000
v -30.000000 0.000006 10.000000
v -10.050002 0.200000 10.050002
v -30.000000 0.200006 10.100004
v -30.000000 0.200006 15.000000
v -30.000000 0.100001 10.000000
v -15.000000 0.199997 10.100004
v -20.000000 0.200000 10.100004
v -25.000000 0.200003 10.100004
v -15.000000 -0.000003 10.000000
v -20.000000 0.000000 10.000000
v -25.000000 0.000003 10.000000
v -25.000000 0.200003 15.000000
v -20.000000 0.200000 15.000000
v -15.000000 0.199997 15.000000
v -15.000000 0.099992 10.000000
v -20.000000 0.099995 10.000000
v -25.000000 0.099998 10.000000
v -9.999999 -0.000006 30.000000
v 9.999998 -0.000006 29.999998
v -10.000000 0.000006 10.000000
v -10.100003 0.199994 30.000000
v -14.999998 0.199994 30.000000
v -9.999999 0.099989 30.000000
v -10.000000 0.100001 10.000000
v 10.100004 0.199994 29.999998
v 14.999996 0.199994 29.999998
v 9.999998 0.099989 29.999998
v -10.100003 0.199997 25.000000
v -10.100003 0.200000 20.000000
v -10.100003 0.200003 15.000000
v -9.999999 -0.000003 25.000000
v -9.999999 -0.000000 20.000000
v -9.999999 0.000003 15.000000
v -14.999999 0.200000 20.000000
v -14.999999 0.199997 25.000000
v -9.999999 0.099992 25.000000
v -9.999999 0.099995 20.000000
v -9.999999 0.099998 15.000000
v -30.000000 0.000006 0.000000
v -10.000000 -0.000000 -0.000000
v -30.000000 0.000009 -10.000000
v -10.050002 0.200003 -10.050002
v -30.000000 0.200009 -10.100004
v -30.000000 0.200011 -15.000000
v -30.000000 0.100004 -10.000000
v -15.000000 0.200000 -10.100004
v -20.000000 0.200003 -10.100004
v -25.000000 0.200006 -10.100004
v -15.000000 0.000000 -10.000000
v -20.000000 0.000003 -10.000000
v -25.000000 0.000006 -10.000000
v -25.000000 0.200008 -15.000000
v -20.000000 0.200005 -15.000000
v -15.000000 0.200002 -15.000000
v -15.000000 0.099995 -10.000000
v -20.000000 0.099998 -10.000000
v -25.000000 0.100001 -10.000000
v -9.999999 0.000004 -30.000000
v 9.999998 0.000004 -29.999998
v -10.000000 0.000009 -10.000000
v -10.100003 0.200004 -30.000000
v -14.999998 0.200004 -30.000000
v -9.999999 0.099999 -30.000000
v -10.000000 0.100004 -10.000000
v 10.100004 0.200004 -29.999998
v 14.999996 0.200004 -29.999998
v 9.999998 0.099999 -29.999998
v -10.100003 0.200005 -25.000000
v -10.100003 0.200007 -20.000000
v -10.100003 0.200008 -15.000000
v -9.999999 0.000005 -25.000000
v -9.999999 0.000007 -20.000000
v -9.999999 0.000008 -15.000000
v -14.999999 0.200007 -20.000000
v -14.999999 0.200005 -25.000000
v -9.999999 0.100000 -25.000000
v -9.999999 0.100002 -20.000000
v -9.999999 0.100003 -15.000000
v 10.100003 0.200000 19.999998
v 14.999996 0.200000 20.000000
v 9.999997 -0.000004 20.000000
v 9.999997 0.099991 20.000000
v 9.999996 -0.000002 -10.000000
v 9.999996 0.099993 -10.000000
v 10.100004 0.199994 9.999998
v 10.100002 0.200006 -10.000001
v 14.999996 0.200006 -10.000001
v 14.999996 0.199994 9.999998
v 9.999998 0.099989 9.999998
v 10.100003 0.200000 -0.000002
v 14.999996 0.200000 0.000000
v 9.999997 0.099991 0.000000
vt 1.000000 1.000000
vt 0.000000 1.000000
vt -0.000000 0.000000
vt 1.000000 0.000000
vt 0.500000 -0.000000
vt 0.500000 1.000000
vt 0.000000 1.000000
vt 0.000000 -0.000000
vt 0.000000 0.000000
vt 1.000000 0.000000
vt 1.000000 0.500035
vt 0.000000 0.750000
vt 0.000000 0.500000
vt 0.000000 0.250000
vt 0.000000 -0.000000
vt 0.000000 1.000000
vt 0.000000 0.000000
vt 0.000000 0.250000
vt 0.000000 0.500000
vt 0.000000 0.750000
vt 1.000000 1.000000
vt 1.000000 0.000000
vt 0.930738 0.499936
vt 0.930739 0.999873
vt 1.000000 1.000000
vt 1.000000 0.500063
vt 0.979999 0.250000
vt 0.979999 0.000000
vt 0.000000 0.000000
vt 0.000000 0.250000
vt 0.930739 0.749905
vt 0.930739 0.999873
vt 1.000000 1.000000
vt 1.000000 0.750032
vt 1.000000 0.250105
vt 1.000000 0.000140
vt 0.930740 0.000000
vt 0.930740 0.249965
vt 1.000000 1.000000
vt 1.000000 0.750035
vt 0.930740 0.749895
vt 0.930740 0.999860
vt 1.000000 0.500070
vt 0.930740 0.499930
vt 0.930738 0.000000
vt 0.930738 0.249968
vt 1.000000 0.250095
vt 1.000000 0.000127
vt 0.930738 0.499936
vt 1.000000 0.500063
vt 0.979999 0.750000
vt 0.979999 0.500000
vt 0.000000 0.500000
vt 0.000000 0.750000
vt 0.930739 0.749905
vt 0.930739 0.999873
vt 1.000000 1.000000
vt 1.000000 0.750032
vt 1.000000 0.250105
vt 1.000000 0.000140
vt 0.930740 0.000000
vt 0.930740 0.249965
vt 0.979999 0.500000
vt 0.979999 0.000000
vt 0.000000 0.000000
vt 0.000000 0.500000
vt 0.930738 0.499936
vt 0.930739 0.999873
vt 1.000000 1.000000
vt 1.000000 0.500063
vt 1.000000 0.000140
vt 0.930740 0.000000
vt 0.930740 0.499930
vt 1.000000 1.000000
vt 1.000000 0.750035
vt 0.930740 0.749895
vt 0.930740 0.999860
vt 1.000000 0.500070
vt 0.930740 0.499930
vt 0.930738 0.000000
vt 0.930738 0.249968
vt 1.000000 0.250095
vt 1.000000 0.000127
vt 0.930738 0.499936
vt 1.000000 0.500063
vt 0.979999 1.000000
vt 0.979999 0.750000
vt 0.000000 0.750000
vt 0.000000 1.000000
vt 0.979999 0.500000
vt 0.000000 0.500000
vt 0.979999 0.250000
vt 0.000000 0.250000
vt 0.979999 0.500000
vt 0.979999 0.000000
vt 0.000000 0.000000
vt 0.000000 0.500000
vt 0.979999 0.250000
vt 0.000000 0.250000
vt 0.000000 0.000000
vt 0.979999 0.000000
vt 0.930739 0.749905
vt 1.000000 0.750032
vt 1.000000 1.000000
vt 0.930739 0.999873
vt 1.000000 0.250105
vt 0.930740 0.249965
vt 0.930740 0.000000
vt 1.000000 0.000140
vt 1.000000 1.000000
vt 0.930740 0.999860
vt 0.930740 0.749895
vt 1.000000 0.750035
vt 0.930740 0.499930
vt 1.000000 0.500070
vt 0.930738 0.000000
vt 1.000000 0.000127
vt 1.000000 0.250095
vt 0.930738 0.249968
vt 1.000000 0.500063
vt 0.930738 0.499936
vt 0.979999 0.750000
vt 0.000000 0.750000
vt 0.000000 0.500000
vt 0.979999 0.500000
vt 0.930739 0.749905
vt 1.000000 0.750032
vt 1.000000 1.000000
vt 0.930739 0.999873
vt 1.000000 0.250105
vt 0.930740 0.249965
vt 0.930740 0.000000
vt 1.000000 0.000140
vt 0.979999 1.000000
vt 0.000000 1.000000
vt 0.930738 0.000000
vt 1.000000 0.000127
vt 1.000000 1.000000
vt 0.930739 0.999873
vt 1.000000 1.000000
vt 0.930740 0.999860
vt 0.930740 0.000000
vt 1.000000 0.000140
vt 1.000000 1.000000
vt 0.930740 0.999860
vt 0.930740 0.749895
vt 1.000000 0.750035
vt 0.930740 0.499930
vt 1.000000 0.500070
vt 0.930738 0.000000
vt 1.000000 0.000127
vt 1.000000 0.250095
vt 0.930738 0.249968
vt 1.000000 0.500063
vt 0.930738 0.499936
vt 0.979999 1.000000
vt 0.000000 1.000000
vt 0.000000 0.750000
vt 0.979999 0.750000
vt 0.000000 0.500000
vt 0.979999 0.500000
vt 0.000000 0.250000
vt 0.979999 0.250000
vt 1.000000 1.000000
vt 0.930740 0.999860
vt 0.930738 0.000000
vt 1.000000 0.000127
vt 0.979999 1.000000
vt 0.000000 1.000000
vt 1.000000 0.500035
vt 0.930740 0.499930
vt 0.930740 0.999860
vt 0.979999 1.000000
vt 0.000000 1.000000
vt 0.018611 0.971664
vt 0.018611 0.018611
vt 0.978948 0.018611
vt 0.988674 0.981389
vt 0.018611 0.971664
vt 0.988674 0.981389
vt 0.978948 0.018611
vt 0.018611 0.018611
vn 0.0000 1.0000 0.0000
vn -0.0000 -1.0000 -0.0000
vn 0.7071 -0.7071 -0.0000
vn 0.0000 0.7071 -0.7071
vn 0.0000 0.0000 -1.0000
vn -0.0377 0.9987 -0.0346
vn 0.7071 0.7071 0.0000
vn 1.0000 0.0000 -0.0000
vn 0.0000 0.7071 0.7071
vn 0.0000 0.0000 1.0000
vn -0.0377 0.9987 0.0346
vn 0.0242 0.9908 -0.1329
vn 0.0242 0.9908 0.1329
usemtl Material.001
s 1
f 1/1/1 85/2/1 62/3/1 22/4/1
usemtl Material.027
f 41/5/2 42/6/2 22/7/2 3/8/2
f 20/9/1 21/10/1 83/11/1 1/1/1 22/7/1 35/12/1 34/13/1 33/14/1
f 41/5/2 43/15/2 62/16/2 42/6/2
f 60/17/1 73/18/1 74/19/1 75/20/1 62/16/1 85/21/1 61/22/1
usemtl Material.028
f 92/23/3 87/24/3 91/25/3 94/26/3
f 10/27/1 5/28/1 6/29/1 14/30/1
f 8/31/4 4/32/4 26/33/4 17/34/4
f 13/35/5 3/36/5 7/37/5 19/38/5
f 22/39/5 11/40/5 17/41/5 26/42/5
f 11/40/5 12/43/5 18/44/5 17/41/5
f 12/43/5 13/35/5 19/38/5 18/44/5
f 5/45/4 10/46/4 19/47/4 7/48/4
f 10/46/4 9/49/4 18/50/4 19/47/4
f 9/49/4 8/31/4 17/34/4 18/50/4
f 8/51/6 9/52/1 15/53/1 16/54/1
f 9/52/1 10/27/1 14/30/1 15/53/1
f 30/55/7 23/56/7 25/57/7 38/58/7
f 35/59/8 22/60/8 26/61/8 40/62/8
f 81/63/2 87/64/2 90/65/2 82/66/2
f 81/67/3 27/68/3 29/69/3 84/70/3
f 83/11/8 1/71/8 91/72/8 84/73/8
f 20/74/8 33/75/8 38/76/8 25/77/8
f 33/75/8 34/78/8 39/79/8 38/76/8
f 34/78/8 35/59/8 40/62/8 39/79/8
f 4/80/7 32/81/7 40/82/7 26/83/7
f 32/81/7 31/84/7 39/85/7 40/82/7
f 31/84/7 30/55/7 38/58/7 39/85/7
f 23/86/1 30/87/1 37/88/1 24/89/1
f 30/87/1 31/90/1 36/91/1 37/88/1
f 31/90/1 32/92/1 16/93/1 36/91/1
f 92/94/2 88/95/2 89/96/2 93/97/2
f 50/98/1 54/99/1 46/100/1 45/101/1
f 48/102/9 57/103/9 66/104/9 44/105/9
f 53/106/10 59/107/10 47/108/10 43/109/10
f 62/110/10 66/111/10 57/112/10 51/113/10
f 51/113/10 57/112/10 58/114/10 52/115/10
f 52/115/10 58/114/10 59/107/10 53/106/10
f 45/116/9 47/117/9 59/118/9 50/119/9
f 50/119/9 59/118/9 58/120/9 49/121/9
f 49/121/9 58/120/9 57/103/9 48/102/9
f 48/122/11 56/123/1 55/124/1 49/125/1
f 49/125/1 55/124/1 54/99/1 50/98/1
f 70/126/7 78/127/7 65/128/7 63/129/7
f 75/130/8 80/131/8 66/132/8 62/133/8
f 67/134/2 68/135/2 89/96/2 88/95/2
f 88/136/3 86/137/3 69/138/3 67/139/3
f 61/140/8 69/141/8 86/142/8 85/143/8
f 60/144/8 65/145/8 78/146/8 73/147/8
f 73/147/8 78/146/8 79/148/8 74/149/8
f 74/149/8 79/148/8 80/131/8 75/130/8
f 44/150/7 66/151/7 80/152/7 72/153/7
f 72/153/7 80/152/7 79/154/7 71/155/7
f 71/155/7 79/154/7 78/127/7 70/126/7
f 63/156/1 64/157/1 77/158/1 70/159/1
f 70/159/1 77/158/1 76/160/1 71/161/1
f 71/161/1 76/160/1 56/162/1 72/163/1
f 21/164/8 83/11/8 84/73/8 29/165/8
f 87/166/3 81/67/3 84/70/3 91/167/3
f 27/168/2 81/63/2 82/66/2 28/169/2
f 2/170/8 85/143/8 86/142/8 94/171/8
f 1/1/8 2/170/8 94/171/8 91/172/8
f 88/136/3 92/23/3 94/26/3 86/137/3
f 87/173/2 92/94/2 93/97/2 90/174/2
usemtl Material.029
f 8/175/6 16/176/1 32/177/1 4/178/12
f 48/179/11 44/180/13 72/181/1 56/182/1
l 42 2
