# Blender v3.0.0 OBJ File: 'concept1.blend'
# www.blender.org
mtllib road_intersection.mtl
o ROAD_TILE_Plane.044_ROAD_TILE_Plane.244
v 290.000000 -0.000006 210.000000
v 290.000000 0.000002 190.000000
v 270.000000 0.000013 190.000000
v 270.000000 0.000002 210.000000
v 250.000000 0.000006 200.000000
v 250.000000 0.000013 190.000000
v 270.000000 0.000000 200.000000
v 250.000000 0.000002 210.000000
v 270.000000 -0.000016 230.000000
v 290.000000 -0.000016 230.000000
v 290.000000 -0.000010 220.000000
v 270.000000 -0.000001 215.000000
v 270.000000 -0.000006 220.000000
v 270.000000 -0.000011 225.000000
v 270.000000 0.000014 170.000000
v 270.000000 0.000013 175.000000
v 270.000000 0.000013 180.000000
v 270.000000 0.000012 185.000000
v 290.000000 0.000014 170.000000
v 290.100006 0.200000 199.999985
v 290.100006 0.199990 210.000000
v 290.000000 0.099985 210.000000
v 290.000000 0.099991 200.000000
v 255.000000 0.199999 210.100006
v 250.000000 0.200002 210.100006
v 250.000000 0.200002 215.000000
v 255.000000 0.199999 215.000000
v 265.000000 0.199993 210.100006
v 269.950012 0.199996 210.050003
v 270.000000 0.099997 210.000000
v 265.000000 0.099988 210.000000
v 255.000000 -0.000001 210.000000
v 250.000000 0.099997 210.000000
v 255.000000 0.099994 210.000000
v 265.000000 -0.000007 210.000000
v 260.000000 -0.000004 210.000000
v 260.000000 0.099991 210.000000
v 260.000000 0.199996 210.100006
v 260.000000 0.199996 215.000000
v 265.000000 0.199993 215.000000
v 269.899994 0.199989 225.000000
v 269.899994 0.199984 230.000000
v 270.000000 0.099979 230.000000
v 270.000000 0.099984 225.000000
v 270.000000 0.099994 215.000000
v 290.100006 0.199994 220.000000
v 295.000000 0.199990 210.000000
v 295.000000 0.199994 220.000000
v 290.100006 0.199984 230.000000
v 290.000000 0.099979 230.000000
v 290.000000 0.099985 220.000000
v 270.000000 0.099989 220.000000
v 269.899994 0.199999 215.000000
v 269.899994 0.199994 220.000000
v 265.000000 0.199989 225.000000
v 265.000000 0.199984 230.000000
v 265.000000 0.199994 220.000000
v 290.100006 0.200010 190.000000
v 295.000000 0.200010 190.000000
v 295.000000 0.200000 200.000000
v 255.000000 0.200010 189.899994
v 255.000000 0.200012 185.000000
v 250.000000 0.200015 185.000000
v 250.000000 0.200013 189.899994
v 265.000000 0.200004 189.899994
v 265.000000 0.099999 190.000000
v 270.000000 0.100008 190.000000
v 269.950012 0.200007 189.949997
v 255.000000 0.000010 190.000000
v 255.000000 0.100005 190.000000
v 250.000000 0.100008 190.000000
v 265.000000 0.000004 190.000000
v 260.000000 0.100002 190.000000
v 260.000000 0.000007 190.000000
v 260.000000 0.200007 189.899994
v 265.000000 0.200006 185.000000
v 260.000000 0.200009 185.000000
v 269.899994 0.200013 175.000000
v 270.000000 0.100008 175.000000
v 270.000000 0.100009 170.000000
v 269.899994 0.200014 170.000000
v 270.000000 0.100007 185.000000
v 290.100006 0.200014 170.000000
v 295.000000 0.200014 170.000000
v 290.000000 0.099997 190.000000
v 290.000000 0.100009 170.000000
v 270.000000 0.100008 180.000000
v 269.899994 0.200012 185.000000
v 269.899994 0.200013 180.000000
v 265.000000 0.200014 170.000000
v 265.000000 0.200013 175.000000
v 265.000000 0.200013 180.000000
v 295.000000 0.199984 230.000000
v 290.000000 0.000000 200.000000
vt 1.000000 1.000000
vt 0.000000 1.000000
vt -0.000000 0.000000
vt 1.000000 0.000000
vt 0.500000 0.000100
vt 0.999900 0.000100
vt 0.999900 0.999900
vt 0.500000 0.999900
vt 0.000100 0.999900
vt 0.000100 0.000100
vt 0.000000 0.000000
vt 1.000000 0.000000
vt 1.000000 0.500035
vt 0.000000 1.000000
vt 0.000000 0.750000
vt 0.000000 0.500000
vt 0.000000 0.250000
vt 0.000000 0.000000
vt 0.000000 0.250000
vt 0.000000 0.500000
vt 0.000000 0.750000
vt 0.000000 1.000000
vt 1.000000 1.000000
vt 1.000000 0.000000
vt 0.930738 0.499936
vt 0.930739 0.999873
vt 1.000000 1.000000
vt 1.000000 0.500063
vt 0.979999 0.250000
vt 0.979999 0.000000
vt 0.000000 0.000000
vt 0.000000 0.250000
vt 0.930739 0.749905
vt 0.930739 0.999873
vt 1.000000 1.000000
vt 1.000000 0.750032
vt 1.000000 0.250105
vt 1.000000 0.000140
vt 0.930740 0.000000
vt 0.930740 0.249965
vt 1.000000 1.000000
vt 1.000000 0.750035
vt 0.930740 0.749895
vt 0.930740 0.999860
vt 1.000000 0.500070
vt 0.930740 0.499930
vt 0.930738 0.000000
vt 0.930738 0.249968
vt 1.000000 0.250095
vt 1.000000 0.000127
vt 0.930738 0.499936
vt 1.000000 0.500063
vt 0.979999 0.750000
vt 0.979999 0.500000
vt 0.000000 0.500000
vt 0.000000 0.750000
vt 0.930739 0.749905
vt 0.930739 0.999873
vt 1.000000 1.000000
vt 1.000000 0.750032
vt 1.000000 0.250105
vt 1.000000 0.000140
vt 0.930740 0.000000
vt 0.930740 0.249965
vt 0.979999 0.500000
vt 0.979999 0.000000
vt 0.000000 0.000000
vt 0.000000 0.500000
vt 0.930738 0.499936
vt 0.930739 0.999873
vt 1.000000 1.000000
vt 1.000000 0.500063
vt 1.000000 0.000140
vt 0.930740 0.000000
vt 0.930740 0.499930
vt 1.000000 1.000000
vt 1.000000 0.750035
vt 0.930740 0.749895
vt 0.930740 0.999860
vt 1.000000 0.500070
vt 0.930740 0.499930
vt 0.930738 0.000000
vt 0.930738 0.249968
vt 1.000000 0.250095
vt 1.000000 0.000127
vt 0.930738 0.499936
vt 1.000000 0.500063
vt 0.979999 1.000000
vt 0.979999 0.750000
vt 0.000000 0.750000
vt 0.000000 1.000000
vt 0.979999 0.500000
vt 0.000000 0.500000
vt 0.979999 0.250000
vt 0.000000 0.250000
vt 0.979999 0.500000
vt 0.979999 0.000000
vt 0.000000 0.000000
vt 0.000000 0.500000
vt 0.979999 0.250000
vt 0.000000 0.250000
vt 0.000000 0.000000
vt 0.979999 0.000000
vt 0.930739 0.749905
vt 1.000000 0.750032
vt 1.000000 1.000000
vt 0.930739 0.999873
vt 1.000000 0.250105
vt 0.930740 0.249965
vt 0.930740 0.000000
vt 1.000000 0.000140
vt 1.000000 1.000000
vt 0.930740 0.999860
vt 0.930740 0.749895
vt 1.000000 0.750035
vt 0.930740 0.499930
vt 1.000000 0.500070
vt 0.930738 0.000000
vt 1.000000 0.000127
vt 1.000000 0.250095
vt 0.930738 0.249968
vt 1.000000 0.500063
vt 0.930738 0.499936
vt 0.979999 0.750000
vt 0.000000 0.750000
vt 0.000000 0.500000
vt 0.979999 0.500000
vt 0.930739 0.749905
vt 1.000000 0.750032
vt 1.000000 1.000000
vt 0.930739 0.999873
vt 1.000000 0.250105
vt 0.930740 0.249965
vt 0.930740 0.000000
vt 1.000000 0.000140
vt 0.979999 1.000000
vt 0.000000 1.000000
vt 0.930738 0.000000
vt 1.000000 0.000127
vt 1.000000 1.000000
vt 0.930739 0.999873
vt 1.000000 1.000000
vt 0.930740 0.999860
vt 0.930740 0.000000
vt 1.000000 0.000140
vt 1.000000 1.000000
vt 0.930740 0.999860
vt 0.930740 0.749895
vt 1.000000 0.750035
vt 0.930740 0.499930
vt 1.000000 0.500070
vt 0.930738 0.000000
vt 1.000000 0.000127
vt 1.000000 0.250095
vt 0.930738 0.249968
vt 1.000000 0.500063
vt 0.930738 0.499936
vt 0.979999 1.000000
vt 0.000000 1.000000
vt 0.000000 0.750000
vt 0.979999 0.750000
vt 0.000000 0.500000
vt 0.979999 0.500000
vt 0.000000 0.250000
vt 0.979999 0.250000
vt 1.000000 1.000000
vt 0.930740 0.999860
vt 0.930738 0.000000
vt 1.000000 0.000127
vt 0.979999 1.000000
vt 0.000000 1.000000
vt 1.000000 0.500035
vt 0.930740 0.499930
vt 0.930740 0.999860
vt 0.979999 1.000000
vt 0.000000 1.000000
vt 0.018611 0.971664
vt 0.018611 0.018611
vt 0.978948 0.018611
vt 0.988674 0.981389
vt 0.018611 0.971664
vt 0.988674 0.981389
vt 0.978948 0.018611
vt 0.018611 0.018611
vn 0.0000 1.0000 0.0000
vn -0.0000 -1.0000 -0.0000
vn 0.7071 -0.7071 -0.0000
vn 0.0000 0.7071 -0.7071
vn -0.0000 0.0000 -1.0000
vn -0.0377 0.9987 -0.0346
vn 0.7071 0.7071 0.0000
vn 1.0000 0.0000 0.0000
vn 0.7071 0.7072 -0.0000
vn 0.0000 0.7071 0.7071
vn 0.0000 0.0000 1.0000
vn -0.0377 0.9987 0.0346
vn 0.0242 0.9908 -0.1329
vn 0.0242 0.9908 0.1329
usemtl Material.015
s 1
f 1/1/1 2/2/1 3/3/1 4/4/1
usemtl Material.027
s off
f 5/5/2 6/6/2 3/7/2 7/8/2 4/9/2 8/10/2
s 1
f 9/11/1 10/12/1 11/13/1 1/1/1 4/14/1 12/15/1 13/16/1 14/17/1
f 15/18/1 16/19/1 17/20/1 18/21/1 3/22/1 2/23/1 19/24/1
usemtl Material.028
f 20/25/3 21/26/3 22/27/3 23/28/3
f 24/29/1 25/30/1 26/31/1 27/32/1
f 28/33/4 29/34/4 30/35/4 31/36/4
f 32/37/5 8/38/5 33/39/5 34/40/5
f 4/41/5 35/42/5 31/43/5 30/44/5
f 35/42/5 36/45/5 37/46/5 31/43/5
f 36/45/5 32/37/5 34/40/5 37/46/5
f 25/47/4 24/48/4 34/49/4 33/50/4
f 24/48/4 38/51/4 37/52/4 34/49/4
f 38/51/4 28/33/4 31/36/4 37/52/4
f 28/53/6 38/54/1 39/55/1 40/56/1
f 38/54/1 24/29/1 27/32/1 39/55/1
f 41/57/7 42/58/7 43/59/7 44/60/7
f 12/61/8 4/62/8 30/63/8 45/64/8
f 46/65/2 21/66/2 47/67/2 48/68/2
f 46/69/3 49/70/3 50/71/3 51/72/3
f 11/13/8 1/73/8 22/74/8 51/75/8
f 9/76/8 14/77/8 44/78/8 43/79/8
f 14/77/8 13/80/8 52/81/8 44/78/8
f 13/80/8 12/61/8 45/64/8 52/81/8
f 29/82/9 53/83/7 45/84/7 30/85/7
f 53/83/7 54/86/7 52/87/7 45/84/7
f 54/86/7 41/57/7 44/60/7 52/87/7
f 42/88/1 41/89/1 55/90/1 56/91/1
f 41/89/1 54/92/1 57/93/1 55/90/1
f 54/92/1 53/94/1 40/95/1 57/93/1
f 20/96/2 58/97/2 59/98/2 60/99/2
f 61/100/1 62/101/1 63/102/1 64/103/1
f 65/104/10 66/105/10 67/106/10 68/107/10
f 69/108/11 70/109/11 71/110/11 6/111/11
f 3/112/11 67/113/11 66/114/11 72/115/11
f 72/115/11 66/114/11 73/116/11 74/117/11
f 74/117/11 73/116/11 70/109/11 69/108/11
f 64/118/10 71/119/10 70/120/10 61/121/10
f 61/121/10 70/120/10 73/122/10 75/123/10
f 75/123/10 73/122/10 66/105/10 65/104/10
f 65/124/12 76/125/1 77/126/1 75/127/1
f 75/127/1 77/126/1 62/101/1 61/100/1
f 78/128/7 79/129/7 80/130/7 81/131/7
f 18/132/8 82/133/8 67/134/8 3/135/8
f 83/136/2 84/137/2 59/98/2 58/97/2
f 58/138/3 85/139/3 86/140/3 83/141/3
f 19/142/8 86/143/8 85/144/8 2/145/8
f 15/146/8 80/147/8 79/148/8 16/149/8
f 16/149/8 79/148/8 87/150/8 17/151/8
f 17/151/8 87/150/8 82/133/8 18/132/8
f 68/152/9 67/153/7 82/154/7 88/155/7
f 88/155/7 82/154/7 87/156/7 89/157/7
f 89/157/7 87/156/7 79/129/7 78/128/7
f 81/158/1 90/159/1 91/160/1 78/161/1
f 78/161/1 91/160/1 92/162/1 89/163/1
f 89/163/1 92/162/1 76/164/1 88/165/1
f 10/166/8 11/13/8 51/75/8 50/167/8
f 21/168/3 46/69/3 51/72/3 22/169/3
f 49/170/2 46/65/2 48/68/2 93/171/2
f 94/172/8 2/145/8 85/144/8 23/173/8
f 1/1/8 94/172/8 23/173/8 22/174/8
f 58/138/3 20/25/3 23/28/3 85/139/3
f 21/175/2 20/96/2 60/99/2 47/176/2
usemtl Material.029
f 28/177/6 40/178/1 53/179/1 29/180/13
f 65/181/12 68/182/14 88/183/1 76/184/1
