# Blender v3.0.1 OBJ File: 'itemselect.blend'
# www.blender.org
mtllib donut.mtl
o Cube.001
v -0.863128 -1.000000 0.010061
v -0.863128 1.000000 0.010061
v -1.003480 -1.000000 -0.010061
v -1.003480 1.000000 -0.010061
v 0.863128 -1.000000 0.010061
v 0.863128 1.000000 0.010061
v 1.003480 -1.000000 -0.010061
v 1.003480 1.000000 -0.010061
vt 0.375000 0.000000
vt 0.625000 0.000000
vt 0.625000 0.250000
vt 0.375000 0.250000
vt 0.995648 0.009822
vt 0.999347 0.996479
vt 0.004352 0.996845
vt 0.003153 0.006854
vt 0.375000 0.500000
vt 0.625000 0.500000
vt 0.625000 0.750000
vt 0.375000 0.750000
vt 0.625000 1.000000
vt 0.375000 1.000000
vt 0.125000 0.500000
vt 0.125000 0.750000
vt 0.875000 0.500000
vt 0.875000 0.750000
vn -0.1419 0.0000 0.9899
vn 0.0000 0.0000 -1.0000
vn 0.1419 0.0000 0.9899
vn 0.0000 0.0000 1.0000
vn 0.0000 -1.0000 -0.0000
vn 0.0000 1.0000 -0.0000
usemtl Material.001
s off
f 1/1/1 2/2/1 4/3/1 3/4/1
f 3/5/2 4/6/2 8/7/2 7/8/2
f 7/9/3 8/10/3 6/11/3 5/12/3
f 5/12/4 6/11/4 2/13/4 1/14/4
f 3/15/5 7/9/5 5/12/5 1/16/5
f 8/10/6 4/17/6 2/18/6 6/11/6
